<svg width="46" height="25" viewBox="0 0 46 25" fill="none" xmlns="http://www.w3.org/2000/svg">
<rect x="2.62906" y="2.5" width="42.0323" height="22" fill="#F7F7E6" stroke="black"/>
<rect x="2.62906" y="2.5" width="42.0323" height="22" fill="#F7F7E6" stroke="black"/>
<rect x="0.0516357" width="41.0323" height="21" fill="black"/>
<path d="M10.0928 15H6.86699V6.27273H10.0886C10.9778 6.27273 11.7434 6.44744 12.3855 6.79688C13.0303 7.14347 13.5275 7.64347 13.8769 8.29688C14.2264 8.94744 14.4011 9.72585 14.4011 10.6321C14.4011 11.5412 14.2264 12.3224 13.8769 12.9759C13.5303 13.6293 13.0346 14.1307 12.3897 14.4801C11.7448 14.8267 10.9792 15 10.0928 15ZM8.97637 13.2017H10.0119C10.5005 13.2017 10.9139 13.1193 11.2519 12.9545C11.5928 12.7869 11.8499 12.5156 12.0232 12.1406C12.1994 11.7628 12.2874 11.2599 12.2874 10.6321C12.2874 10.0043 12.1994 9.50426 12.0232 9.1321C11.8471 8.7571 11.5872 8.48722 11.2434 8.32244C10.9025 8.15483 10.4821 8.07102 9.98205 8.07102H8.97637V13.2017ZM16.2537 15.1236C15.9469 15.1236 15.6841 15.0156 15.4654 14.7997C15.2495 14.5838 15.1429 14.3224 15.1458 14.0156C15.1429 13.7145 15.2495 13.4574 15.4654 13.2443C15.6841 13.0284 15.9469 12.9205 16.2537 12.9205C16.5435 12.9205 16.7992 13.0284 17.0208 13.2443C17.2452 13.4574 17.3588 13.7145 17.3617 14.0156C17.3588 14.2202 17.3048 14.4062 17.1997 14.5739C17.0975 14.7415 16.9625 14.875 16.7949 14.9744C16.6301 15.0739 16.4497 15.1236 16.2537 15.1236ZM20.7196 6.27273L22.6713 12.6648H22.7438L24.6955 6.27273H27.0563L24.1117 15H21.3034L18.3588 6.27273H20.7196ZM28.0076 15.1236C27.7008 15.1236 27.438 15.0156 27.2193 14.7997C27.0034 14.5838 26.8968 14.3224 26.8997 14.0156C26.8968 13.7145 27.0034 13.4574 27.2193 13.2443C27.438 13.0284 27.7008 12.9205 28.0076 12.9205C28.2974 12.9205 28.5531 13.0284 28.7747 13.2443C28.9991 13.4574 29.1127 13.7145 29.1156 14.0156C29.1127 14.2202 29.0588 14.4062 28.9536 14.5739C28.8514 14.7415 28.7164 14.875 28.5488 14.9744C28.384 15.0739 28.2036 15.1236 28.0076 15.1236Z" fill="white"/>
</svg>
