<svg width="51" height="28" viewBox="0 0 51 28" fill="none" xmlns="http://www.w3.org/2000/svg">
<rect x="7.66553" y="4.10538" width="42" height="22.45" fill="black" stroke="black"/>
<rect x="0.288818" y="0.574036" width="47.8627" height="24.4958" fill="#E6E3CA"/>
<rect width="13.268" height="2.21133" rx="0.2" transform="matrix(0.768766 -0.63953 0.768766 0.63953 4.30017 14.4854)" fill="white"/>
<rect width="21.27" height="2.21133" rx="0.2" transform="matrix(0.548147 -0.836382 0.922176 0.38677 18.3002 21.7898)" fill="white"/>
<rect width="13.268" height="2.21133" rx="0.2" transform="matrix(0.768766 0.63953 -0.768766 0.63953 6 13.0001)" fill="white"/>
<rect width="13.268" height="2.21133" rx="0.2" transform="matrix(-0.768766 0.63953 -0.768766 -0.63953 45.2002 14.4142)" fill="white"/>
<rect width="13.268" height="2.21133" rx="0.2" transform="matrix(-0.768766 -0.63953 0.768766 -0.63953 43.5002 15.8995)" fill="white"/>
<rect width="13.268" height="2.21133" rx="0.2" transform="matrix(0.768766 -0.63953 0.768766 0.63953 3.00012 13.4854)" fill="black"/>
<rect width="21.27" height="2.21133" rx="0.2" transform="matrix(0.548147 -0.836382 0.922176 0.38677 17.0001 20.7898)" fill="black"/>
<rect width="13.268" height="2.21133" rx="0.2" transform="matrix(0.768766 0.63953 -0.768766 0.63953 4.69995 12.0001)" fill="black"/>
<rect width="13.268" height="2.21133" rx="0.2" transform="matrix(-0.768766 0.63953 -0.768766 -0.63953 43.9001 13.4142)" fill="black"/>
<rect width="13.268" height="2.21133" rx="0.2" transform="matrix(-0.768766 -0.63953 0.768766 -0.63953 42.2002 14.8995)" fill="black"/>
<rect x="7.66553" y="4.10538" width="42" height="22.45" fill="black" stroke="black"/>
<rect x="0.288818" y="0.574036" width="47.8627" height="24.4958" fill="#E6E3CA"/>
<rect width="13.268" height="2.21133" rx="0.2" transform="matrix(0.768766 -0.63953 0.768766 0.63953 4.30017 14.4854)" fill="white"/>
<rect width="21.27" height="2.21133" rx="0.2" transform="matrix(0.548147 -0.836382 0.922176 0.38677 18.3002 21.7898)" fill="white"/>
<rect width="13.268" height="2.21133" rx="0.2" transform="matrix(0.768766 0.63953 -0.768766 0.63953 6 13.0001)" fill="white"/>
<rect width="13.268" height="2.21133" rx="0.2" transform="matrix(-0.768766 0.63953 -0.768766 -0.63953 45.2002 14.4142)" fill="white"/>
<rect width="13.268" height="2.21133" rx="0.2" transform="matrix(-0.768766 -0.63953 0.768766 -0.63953 43.5002 15.8995)" fill="white"/>
<rect width="13.268" height="2.21133" rx="0.2" transform="matrix(0.768766 -0.63953 0.768766 0.63953 3.00012 13.4854)" fill="black"/>
<rect width="21.27" height="2.21133" rx="0.2" transform="matrix(0.548147 -0.836382 0.922176 0.38677 17.0001 20.7898)" fill="black"/>
<rect width="13.268" height="2.21133" rx="0.2" transform="matrix(0.768766 0.63953 -0.768766 0.63953 4.69995 12.0001)" fill="black"/>
<rect width="13.268" height="2.21133" rx="0.2" transform="matrix(-0.768766 0.63953 -0.768766 -0.63953 43.9001 13.4142)" fill="black"/>
<rect width="13.268" height="2.21133" rx="0.2" transform="matrix(-0.768766 -0.63953 0.768766 -0.63953 42.2002 14.8995)" fill="black"/>
</svg>
